<?xml version="1.0" encoding="UTF-8" standalone="no"?>
<svg
   xmlns:dc="http://purl.org/dc/elements/1.1/"
   xmlns:cc="http://creativecommons.org/ns#"
   xmlns:rdf="http://www.w3.org/1999/02/22-rdf-syntax-ns#"
   xmlns:svg="http://www.w3.org/2000/svg"
   xmlns="http://www.w3.org/2000/svg"
   viewBox="0 0 71.213333 92.813332"
   height="92.813332"
   width="71.213333"
   xml:space="preserve"
   id="svg2"
   version="1.1"><metadata
     id="metadata8"><rdf:RDF><cc:Work
         rdf:about=""><dc:format>image/svg+xml</dc:format><dc:type
           rdf:resource="http://purl.org/dc/dcmitype/StillImage" /></cc:Work></rdf:RDF></metadata><defs
     id="defs6" /><g
     transform="matrix(1.3333333,0,0,-1.3333333,0,92.813333)"
     id="g10"><g
       transform="scale(0.1)"
       id="g12"><path
         id="path14"
         style="fill:#000000;fill-opacity:1;fill-rule:nonzero;stroke:none"
         d="m 446.148,481.977 c 0,-0.637 -0.515,-1.161 -1.152,-1.161 h -64.062 -64.063 c -0.633,0 -1.152,0.524 -1.152,1.161 v 76.406 c 0,0.637 0.519,1.156 1.152,1.156 h 64.063 64.062 c 0.637,0 1.152,-0.519 1.152,-1.156 z m -100.371,129.793 0.039,25.722 c 0,18.41 16.086,33.961 35.118,33.961 19.035,0 35.117,-15.551 35.117,-33.961 v -24.695 l 0.039,-1.027 c 0.945,-11.266 2.832,-20.415 4.875,-27.528 h -40.031 -40.02 c 2.031,7.113 3.926,16.262 4.863,27.528 z M 534.129,360.754 c -1.418,52.379 -32.375,67.254 -52.863,77.09 -4.844,2.332 -9.414,4.531 -12.539,6.746 -7.688,5.437 -10.352,11.258 -11.289,14.871 7.949,4.414 13.41,12.797 13.41,22.516 v 76.406 c 0,13.539 -10.5,24.555 -23.75,25.644 -2.168,5.516 -5.129,15.168 -6.352,29.289 v 24.176 c 0,32.344 -26.824,58.656 -59.812,58.656 -32.981,0 -59.817,-26.312 -59.817,-58.656 v -24.176 c -0.172,-2.074 -0.437,-3.945 -0.679,-5.828 -0.137,-1.031 -0.254,-2.109 -0.411,-3.082 -0.214,-1.441 -0.468,-2.742 -0.722,-4.062 -0.176,-0.922 -0.344,-1.91 -0.528,-2.774 -0.238,-1.097 -0.492,-2.054 -0.742,-3.054 -0.226,-0.911 -0.449,-1.895 -0.676,-2.719 0.227,0.812 0.442,1.773 0.657,2.664 -0.215,-0.895 -0.43,-1.852 -0.657,-2.664 v 0 c -0.086,-0.317 -0.183,-0.582 -0.261,-0.856 -0.754,-2.574 -1.485,-4.722 -2.16,-6.48 -0.059,-0.137 -0.11,-0.305 -0.157,-0.43 -13.261,-1.09 -23.758,-12.109 -23.758,-25.648 v -76.406 c 0,-9.719 5.457,-18.114 13.418,-22.52 -0.011,-0.035 -0.011,-0.059 -0.019,-0.094 -0.988,-3.644 -3.703,-9.386 -11.301,-14.758 -3.086,-2.218 -7.656,-4.441 -12.527,-6.726 -20.508,-9.879 -51.438,-24.758 -52.86,-77.426 v 0 -83.355 c 0,-6.817 5.528,-12.344 12.352,-12.344 6.816,0 12.348,5.527 12.348,12.344 v 82.984 c 0.023,1.059 0.121,2.016 0.175,3.031 0.106,1.875 0.25,3.688 0.45,5.41 2.554,22.047 12.566,32.602 24.437,39.856 0.215,0.133 0.442,0.262 0.664,0.387 0.891,0.535 1.789,1.062 2.695,1.562 3.399,1.883 6.907,3.57 10.391,5.246 0,0 0,0 0,0.004 0.012,0.008 0.02,0.008 0.02,0.012 2.14,1.008 4.148,2.023 6.164,3.047 -1.328,-0.676 -2.617,-1.36 -4.024,-2.032 1.446,0.692 2.774,1.395 4.149,2.094 0.793,0.399 1.633,0.797 2.402,1.211 0,0.004 0.012,0.012 0.02,0.016 2.441,1.301 4.785,2.66 7.011,4.183 -2.175,-1.496 -4.48,-2.824 -6.875,-4.105 2.559,1.371 5.02,2.805 7.336,4.418 14.063,9.926 19.805,22.383 21.543,31.703 h 51.942 51.953 c 1.777,-9.355 7.539,-21.758 21.562,-31.684 4.824,-3.429 10.313,-6.062 16.125,-8.851 18.614,-8.942 37.86,-18.195 38.867,-55.168 V 46.043 c 0,-11.7696 -9.582,-21.3477 -21.359,-21.3477 H 380.934 V 0 h 107.148 c 25.391,0 46.055,20.6523 46.055,46.043 z M 380.914,24.6953 v 0 V 0 h -72.91 c -6.824,0 -12.352,5.52344 -12.352,12.3438 0,6.8242 5.528,12.3515 12.352,12.3515 z M 180.898,101.688 c 22.383,12.773 51.153,-4.6685 72.18,-22.9224 -27.601,-2.8984 -60.816,-0.4375 -72.18,22.9224 z m -26.527,52.578 c -49.433,36.035 -25.566,113.527 0,165.125 25.57,-51.598 49.445,-129.09 0,-165.125 z M 55.6719,78.7656 C 76.6953,96.9883 105.48,114.43 127.844,101.68 116.484,78.3164 83.293,75.8555 55.6719,78.7656 Z M 34.9961,189.742 C 72.5547,184.922 119.352,170.563 124.18,133.465 88.8477,121.504 55.6367,157.93 34.9961,189.742 Z m 238.7499,0 c -20.644,-31.812 -53.855,-68.23 -89.18,-56.277 4.825,37.09 51.622,51.457 89.18,56.277 z M 288.043,79.2656 c -13.191,14.2461 -30.836,29.3944 -50.008,39.4224 29.715,17.484 54.188,51.027 69.149,79.121 1.875,3.527 1.933,6.953 0.851,9.894 -1.133,4.902 -4.941,8.965 -11.515,8.692 -0.11,-0.008 -0.215,-0.008 -0.321,-0.02 -0.91,0.059 -1.816,0.027 -2.715,-0.137 -27.082,-1.433 -60.996,-7.351 -87.964,-21.25 8.613,51.649 -16.438,114.895 -40.485,156.891 -2.597,4.535 -6.656,6.195 -10.644,5.937 -4.004,0.27 -8.071,-1.382 -10.68,-5.937 -24.047,-41.988 -49.1016,-105.231 -40.488,-156.891 -26.9964,13.914 -60.9574,19.825 -88.055,21.258 -0.8594,0.149 -1.7305,0.18 -2.5977,0.129 -0.1172,0 -0.2344,0.012 -0.3476,0.02 -6.55082,0.273 -10.3477,-3.77 -11.492231,-8.653 -1.101563,-2.949 -1.054688,-6.387 0.828121,-9.933 C 16.5195,169.715 40.9922,136.16 70.7109,118.68 51.5352,108.66 33.8945,93.5117 20.6953,79.2656 c -2.4531,-2.6484 -3.3945,-5.5937 -3.3398,-8.4375 -0.5782,-5.3125 1.9804,-10.7148 8.789,-12.1953 0.1368,-0.0312 0.2774,-0.0625 0.4141,-0.0898 0.9492,-0.3125 1.918,-0.5274 2.9141,-0.5742 36.0117,-7.2891 87.6293,-8.5 112.5543,20.1718 0,-17.7109 0,-35.4179 0,-53.1328 0,-15.89061 24.7,-15.91796 24.7,0 0,17.7149 0,35.4219 0,53.1328 24.921,-28.6718 76.543,-27.4609 112.546,-20.1718 0.997,0.0468 1.965,0.2617 2.911,0.5742 0.129,0.0273 0.285,0.0586 0.41,0.0898 6.777,1.4727 9.336,6.8438 8.789,12.1367 0.078,2.8633 -0.86,5.8282 -3.34,8.4961" /></g></g></svg>