<?xml version="1.0" encoding="UTF-8"?>
<svg width="360px" height="165px" viewBox="0 0 360 165" version="1.1" xmlns="http://www.w3.org/2000/svg" xmlns:xlink="http://www.w3.org/1999/xlink">
    <title>Color-White-BuyNowPayLater</title>
    <defs>
        <linearGradient x1="80.5264165%" y1="85.620988%" x2="45.7582656%" y2="37.6844978%" id="linearGradient-1">
            <stop stop-color="#CE5DCB" offset="0%"></stop>
            <stop stop-color="#C558CC" offset="20.95%"></stop>
            <stop stop-color="#AC4ACF" offset="55.25%"></stop>
            <stop stop-color="#8534D4" offset="98.45%"></stop>
            <stop stop-color="#8333D4" offset="100%"></stop>
        </linearGradient>
        <linearGradient x1="0.00437712866%" y1="49.9966604%" x2="100.010621%" y2="49.9966604%" id="linearGradient-2">
            <stop stop-color="#FF5667" offset="2.37%"></stop>
            <stop stop-color="#FC8B82" offset="65.92%"></stop>
            <stop stop-color="#FBA28E" offset="100%"></stop>
        </linearGradient>
        <linearGradient x1="0.00782085039%" y1="50.0010435%" x2="100.007821%" y2="50.0010435%" id="linearGradient-3">
            <stop stop-color="#00B874" offset="0%"></stop>
            <stop stop-color="#29D3A2" offset="51.26%"></stop>
            <stop stop-color="#53DFB6" offset="68.17%"></stop>
            <stop stop-color="#9FF4D9" offset="100%"></stop>
        </linearGradient>
        <linearGradient x1="-0.00385828619%" y1="49.9978386%" x2="99.9952032%" y2="49.9978386%" id="linearGradient-4">
            <stop stop-color="#FCD77E" offset="0%"></stop>
            <stop stop-color="#FEA500" offset="52.41%"></stop>
            <stop stop-color="#FF5B00" offset="100%"></stop>
        </linearGradient>
    </defs>
    <g id="Color-White-BuyNowPayLater" stroke="none" stroke-width="1" fill="none" fill-rule="evenodd">
        <g id="Sezzle_Logo_FullColor_WhiteWM" transform="translate(43.000000, 25.000000)" fill-rule="nonzero">
            <path d="M4.976525,45.953225 C11.155225,52.13535 21.176775,52.13535 27.3589,45.953225 L27.951425,45.3607 C31.040775,42.27135 24.862075,26.0711 27.951425,22.978325 L4.976525,45.953225 Z" id="Path" fill="url(#linearGradient-1)"></path>
            <path d="M28.547375,22.3858 L27.95485,22.978325 C24.8655,26.067675 31.0442,42.267925 27.95485,45.357275 L50.926325,22.3858 C47.836975,19.29645 43.7852,17.7517693 39.73685,17.7517693 C35.6885,17.74835 31.636725,19.293025 28.547375,22.3858" id="Path" fill="url(#linearGradient-2)"></path>
            <g id="SVGID_3_-link" fill="url(#linearGradient-3)">
                <path d="M4.976525,23.574275 C-1.2056,29.752975 -1.2056,39.774525 4.976525,45.953225 L28.5508,22.37895 C34.7295,16.196825 34.7295,6.1787 28.5508,4.86721774e-15 L4.976525,23.574275 Z" id="SVGID_3_"></path>
            </g>
            <path d="M27.3589,45.953225 C21.1802,52.13535 21.1802,62.153475 27.3589,68.3356 L50.933175,44.761325 C57.1153,38.582625 57.1153,28.561075 50.933175,22.382375 L27.3589,45.953225 Z" id="Path" fill="url(#linearGradient-4)"></path>
            <g id="Group" transform="translate(72.610000, 6.165000)" fill="#FFFFFF">
                <path d="M70.024125,28.1261 C69.54805,26.4958 68.839075,24.94085 67.914325,23.505775 C66.331975,21.05005 64.126275,19.0019 61.536975,17.58395 C57.45095,15.354275 52.57375,14.83025 48.083575,16.1386 C43.5523,17.46065 39.808775,20.47465 37.541425,24.62575 C35.287775,28.7563 34.767175,33.51705 36.07895,38.03805 L36.09265,38.082575 C36.39405,39.089525 36.876975,40.377325 36.88725,40.397875 C38.390825,43.918775 40.9082,46.603975 44.583225,48.61445 C47.179375,50.035825 50.1009,50.7859 53.029275,50.7859 C54.71095,50.7859 56.39605,50.542725 58.029775,50.0598 C61.4856,49.049425 64.4996,47.056075 66.7738,44.25785 L66.91765,44.07975 C67.496475,43.3468 68.023925,42.562475 68.47945,41.747325 C69.291175,40.29855 68.770575,38.459325 67.3218,37.6476 C66.873125,37.397575 66.366225,37.264 65.852475,37.264 C64.7599,37.264 63.75295,37.8531 63.222075,38.80525 C62.47885,40.13415 61.495875,41.288375 60.297125,42.2371 C60.194375,42.3193 60.09505,42.40835 60.043675,42.47 C58.940825,43.292 57.694125,43.9085 56.344675,44.3058 C53.392325,45.172325 50.172825,44.8264 47.460225,43.3468 C45.66895,42.370675 44.172225,40.9219 43.110475,39.14775 L67.996525,31.84565 C69.57545,31.37985 70.489925,29.711875 70.024125,28.1261 Z M53.08065,21.409675 C55.0055,21.409675 56.933775,21.9063 58.659975,22.84475 C60.3622,23.772925 61.817825,25.1258 62.872725,26.752675 C62.93095,26.84515 62.9926,26.94105 63.050825,27.03695 L41.384275,33.39375 C41.329475,31.349025 41.822675,29.318 42.815925,27.4959 C44.309225,24.759325 46.77865,22.7694 49.7721,21.8926 C50.857825,21.57065 51.974375,21.409675 53.08065,21.409675 Z" id="Shape"></path>
                <path d="M101.965675,45.06615 L85.5017,45.06615 L103.911075,18.018925 C104.260425,17.5086 104.294675,16.851 104.006975,16.303 C103.719275,15.755 103.15415,15.415925 102.534225,15.415925 L79.127775,15.415925 C77.572825,15.415925 76.309,16.67975 76.309,18.2347 C76.309,19.78965 77.572825,21.053475 79.127775,21.053475 L94.814275,21.053475 L76.408325,48.1007 C76.058975,48.61445 76.024725,49.27205 76.312425,49.816625 C76.600125,50.3612 77.16525,50.700275 77.785175,50.700275 L101.96225,50.700275 C103.5172,50.700275 104.781025,49.43645 104.781025,47.8815 C104.781025,46.3334 103.5172,45.06615 101.965675,45.06615 Z" id="Path"></path>
                <path d="M138.4385,45.06615 L121.97795,45.06615 L140.387325,18.018925 C140.736675,17.5086 140.770925,16.851 140.483225,16.303 C140.195525,15.758425 139.6304,15.41935 139.010475,15.41935 L115.604025,15.41935 C114.049075,15.41935 112.78525,16.683175 112.78525,18.238125 C112.78525,19.793075 114.049075,21.0569 115.604025,21.0569 L131.290525,21.0569 L112.884575,48.104125 C112.53865,48.617875 112.500975,49.27205 112.788675,49.82005 C113.0798,50.364625 113.6415,50.7037 114.261425,50.7037 L138.4385,50.7037 C139.99345,50.7037 141.257275,49.439875 141.257275,47.884925 C141.257275,46.3334 139.99345,45.06615 138.4385,45.06615 Z" id="Path"></path>
                <path d="M154.69355,0.160975 C153.1386,0.160975 151.874775,1.4248 151.874775,2.97975 L151.874775,47.987675 C151.874775,49.5392 153.1386,50.80645 154.69355,50.80645 C156.2485,50.80645 157.512325,49.5392 157.512325,47.987675 L157.512325,2.97975 C157.512325,1.4248 156.2485,0.160975 154.69355,0.160975 Z" id="Path"></path>
                <path d="M200.927625,28.1261 C200.454975,26.4958 199.742575,24.94085 198.817825,23.505775 C197.23205,21.05005 195.029775,19.0019 192.440475,17.58395 C188.351025,15.354275 183.47725,14.83025 178.987075,16.1386 C174.4558,17.46065 170.70885,20.47465 168.444925,24.62575 C166.18785,28.7563 165.670675,33.51705 166.979025,38.03805 L166.992725,38.086 C167.294125,39.089525 167.77705,40.377325 167.787325,40.4013 C169.2909,43.9222 171.808275,46.6074 175.4833,48.617875 C178.07945,50.03925 181.000975,50.789325 183.92935,50.789325 C185.611025,50.789325 187.2927,50.54615 188.92985,50.063225 C192.385675,49.05285 195.399675,47.0595 197.673875,44.2647 L197.82115,44.076325 C198.4034,43.33995 198.927425,42.555625 199.379525,41.747325 C200.19125,40.29855 199.67065,38.459325 198.221875,37.6476 C197.7732,37.397575 197.2663,37.264 196.75255,37.264 C195.6634,37.264 194.653025,37.8531 194.12215,38.80525 C193.378925,40.13415 192.392525,41.2918 191.1972,42.2371 C191.091025,42.3193 190.995125,42.40835 190.940325,42.47 C189.837475,43.292 188.590775,43.9085 187.241325,44.3058 C184.2924,45.172325 181.0729,44.8264 178.356875,43.3468 C176.5656,42.370675 175.068875,40.9219 174.0037,39.14775 L198.88975,31.84565 C200.47895,31.37985 201.39,29.711875 200.927625,28.1261 Z M183.980725,21.409675 C185.905575,21.409675 187.83385,21.9063 189.56005,22.84475 C191.262275,23.772925 192.7179,25.1258 193.7728,26.752675 C193.831025,26.84515 193.892675,26.94105 193.9509,27.03695 L172.28435,33.39375 C172.22955,31.3456 172.72275,29.314575 173.716,27.4959 C175.2093,24.759325 177.678725,22.7694 180.672175,21.8926 C181.761325,21.57065 182.87445,21.409675 183.980725,21.409675 Z" id="Shape"></path>
                <path d="M26.636225,35.0309 C25.800525,33.808175 24.594925,32.787525 23.05025,32.0032 C20.52945,30.718825 17.25515,30.129725 14.121275,29.63995 L13.62465,29.5646 C11.422375,29.2221 9.14475,28.8659 7.682275,28.1261 C6.576,27.5644 6.182125,26.9342 6.182125,25.704625 C6.182125,23.32425 8.771425,21.52955 12.210125,21.52955 C16.30985,21.52955 18.601175,22.7283 21.1665,24.293525 C21.642575,24.58465 22.190575,24.738775 22.745425,24.738775 C23.814025,24.738775 24.7833,24.197625 25.33815,23.286575 C25.759425,22.594725 25.889575,21.779575 25.697775,20.991825 C25.505975,20.204075 25.019625,19.5362 24.327775,19.114925 C22.9064,18.2484 21.354875,17.340775 19.388925,16.63865 C17.1798,15.847475 14.83025,15.463875 12.2067,15.463875 C9.042,15.463875 6.0828,16.422875 3.873675,18.17305 C1.44535,20.09105 0.1096,22.7694 0.1096,25.711475 C0.1096,29.239225 1.781,31.951825 4.942275,33.5513 C7.264425,34.726075 10.024975,35.1542 12.69305,35.568625 L13.182825,35.643975 C20.025975,36.716 22.0022,37.68185 22.0022,39.945775 C22.0022,42.75085 19.1937,44.58665 14.847375,44.624325 L14.689825,44.624325 C10.0284,44.624325 7.4117,42.83305 6.00745,41.870625 C5.77455,41.713075 5.5759,41.57265 5.37725,41.44935 C4.894325,41.14795 4.339475,40.9904 3.77435,40.9904 C2.71945,40.9904 1.7536,41.5247 1.195325,42.418625 C0.30825,43.84 0.743225,45.7169 2.1646,46.60055 C2.243375,46.6485 2.36325,46.7307 2.496825,46.823175 L2.579025,46.877975 C4.247,48.0185 8.148075,50.693425 14.69325,50.693425 L14.902175,50.693425 C18.6731,50.659175 21.916575,49.645375 24.2764,47.754775 C26.725275,45.795675 28.074725,43.021425 28.074725,39.94235 C28.074725,38.075725 27.588375,36.424875 26.636225,35.0309 Z" id="Path"></path>
            </g>
        </g>
        <text id="Buy-now,-pay-later." font-family="Comfortaa-Bold, Comfortaa" font-size="29.3999995" font-weight="bold" fill="#FFFFFF">
            <tspan x="40.4823024" y="133">Buy now, pay later.</tspan>
        </text>
    </g>
</svg>