<?xml version="1.0" encoding="UTF-8"?>
<svg width="360px" height="165px" viewBox="0 0 360 165" version="1.1" xmlns="http://www.w3.org/2000/svg" xmlns:xlink="http://www.w3.org/1999/xlink">
    <title>White-Logosmall</title>
    <g id="White-Logo" stroke="none" stroke-width="1" fill="none" fill-rule="evenodd">
        <g id="Sezzle_Logo_WhiteAlt" transform="translate(43.000000, 48.000000)" fill="#FFFFFF" fill-rule="nonzero">
            <g id="Group" transform="translate(72.448622, 6.180451)">
                <path d="M70.3369674,28.2274937 C69.8596992,26.5931078 69.1489474,25.0376942 68.2218797,23.5990226 C66.6355639,21.1405764 64.4277694,19.0907268 61.8354135,17.6692231 C57.7425815,15.4373935 52.8600251,14.9120551 48.3620301,16.2202506 C43.8228321,17.5421805 40.0733584,20.5637343 37.8037594,24.7183709 C35.5444612,28.8558396 35.02599,33.6250877 36.337619,38.1505514 L36.3513534,38.195188 C36.6535088,39.2046617 37.1376441,40.4922556 37.1479449,40.5128571 C38.6552882,44.0391479 41.1755388,46.7310777 44.8563409,48.7397243 C47.4555639,50.1612281 50.3809774,50.913183 53.3166917,50.913183 C55.0025815,50.913183 56.6884712,50.6693985 58.3262907,50.1886967 C61.7873434,49.1792231 64.8054637,47.1808772 67.0853634,44.3756391 L67.2295739,44.1970927 C67.8098496,43.4623058 68.3386216,42.676015 68.7952882,41.8588221 C69.6090476,40.406416 69.0871429,38.566015 67.6347368,37.7522556 C67.1849373,37.501604 66.6767669,37.3676942 66.1651629,37.3676942 C65.0732832,37.3676942 64.0638095,37.9582707 63.531604,38.912807 C62.7865163,40.2450376 61.8010777,41.4021554 60.5993233,42.3498246 C60.4963158,42.4322306 60.3967419,42.5215038 60.3452381,42.5833083 C59.2396241,43.4039348 57.9932331,44.0254135 56.640401,44.4237093 C53.6840852,45.292406 50.4599499,44.945614 47.7405514,43.4657393 C45.9482206,42.4871679 44.4477444,41.0381955 43.3833333,39.259599 L68.3042857,31.9460652 C69.8871679,31.4825313 70.8005013,29.8138095 70.3369674,28.2274937 Z M53.3681955,21.4976692 C55.2944361,21.4976692 57.2275439,21.9955388 58.9546366,22.9363409 C60.6576942,23.8668421 62.1169674,25.2196742 63.1745113,26.847193 C63.2328822,26.9398997 63.2912531,27.0360401 63.3496241,27.1321805 L41.652807,33.4980451 C41.5978697,31.4481955 42.0888722,29.4155138 43.0880451,27.5922807 C44.5816541,24.8522807 47.0572682,22.860802 50.054787,21.9783709 C51.1432331,21.6624812 52.2557143,21.4976692 53.3681955,21.4976692 Z" id="Shape"></path>
                <path d="M102.324236,45.1893985 L85.8361654,45.1893985 L104.274511,18.1018546 C104.621303,17.5902506 104.659073,16.9310025 104.370652,16.3850627 C104.082231,15.8391228 103.515689,15.499198 102.897644,15.499198 L79.4531328,15.499198 C77.8977193,15.499198 76.6307268,16.7661905 76.6307268,18.321604 C76.6307268,19.8770175 77.8977193,21.14401 79.4531328,21.14401 L95.165213,21.14401 L76.7337343,48.2315539 C76.3869424,48.7465915 76.3491729,49.402406 76.637594,49.9483459 C76.926015,50.4942857 77.4925564,50.8342105 78.1106015,50.8342105 L102.324236,50.8342105 C103.879649,50.8342105 105.146642,49.567218 105.146642,48.0118045 C105.146642,46.456391 103.879649,45.1893985 102.324236,45.1893985 Z" id="Path"></path>
                <path d="M138.850702,45.1893985 L122.366065,45.1893985 L140.804411,18.1018546 C141.154637,17.5902506 141.188972,16.9344361 140.900551,16.3816291 C140.61213,15.8356892 140.045589,15.4957644 139.427544,15.4957644 L115.986466,15.4957644 C114.431053,15.4957644 113.16406,16.7627569 113.16406,18.3181704 C113.16406,19.873584 114.431053,21.1405764 115.986466,21.1405764 L131.695113,21.1405764 L113.263634,48.2281203 C112.916842,48.7397243 112.879073,49.3989724 113.167494,49.9449123 C113.455915,50.4908521 114.022456,50.8307769 114.640501,50.8307769 L138.854135,50.8307769 C140.409549,50.8307769 141.676541,49.5637845 141.676541,48.0083709 C141.673108,46.456391 140.406115,45.1893985 138.850702,45.1893985 Z" id="Path"></path>
                <path d="M155.129323,0.216315789 C153.57391,0.216315789 152.306917,1.48330827 152.306917,3.0387218 L152.306917,48.1113784 C152.306917,49.666792 153.57391,50.9337845 155.129323,50.9337845 C156.684737,50.9337845 157.951729,49.666792 157.951729,48.1113784 L157.951729,3.04215539 C157.951729,1.48330827 156.684737,0.216315789 155.129323,0.216315789 Z" id="Path"></path>
                <path d="M201.431203,28.2274937 C200.957368,26.5965414 200.246617,25.0376942 199.316115,23.5990226 C197.729799,21.1405764 195.522005,19.0907268 192.929649,17.6692231 C188.836817,15.4373935 183.954261,14.9120551 179.456266,16.2202506 C174.917068,17.5421805 171.167594,20.5637343 168.897995,24.7183709 C166.638697,28.8558396 166.120226,33.6250877 167.431855,38.1505514 L167.445589,38.1986216 C167.747744,39.2046617 168.23188,40.4922556 168.24218,40.5162907 C169.749524,44.0425815 172.269774,46.7310777 175.950576,48.7431579 C178.549799,50.1646617 181.475213,50.9166165 184.410927,50.9166165 C186.096817,50.9166165 187.779273,50.6728321 189.420526,50.1921303 C192.881579,49.1826566 195.899699,47.1843108 198.176165,44.3825063 L198.32381,44.1936591 C198.907519,43.4554386 199.429424,42.6725815 199.88609,41.8622556 C200.696416,40.4098496 200.177945,38.5694486 198.725539,37.7556892 C198.275739,37.5050376 197.767569,37.3711278 197.255965,37.3711278 C196.164085,37.3711278 195.154612,37.9617043 194.622406,38.9162406 C193.877318,40.2484712 192.89188,41.405589 191.693559,42.3532581 C191.587118,42.4356642 191.490977,42.5249373 191.43604,42.5867419 C190.330426,43.4073684 189.084035,44.0288471 187.731203,44.4271429 C184.778321,45.2958396 181.550752,44.9490476 178.834787,43.4691729 C177.039023,42.4906015 175.54198,41.0416291 174.477569,39.2630326 L199.398521,31.9494987 C200.981404,31.4825313 201.894737,29.8138095 201.431203,28.2274937 Z M184.462431,21.4976692 C186.388672,21.4976692 188.321779,21.9955388 190.048872,22.9363409 C191.75193,23.8668421 193.211203,25.2196742 194.268747,26.847193 C194.327118,26.9398997 194.388922,27.0360401 194.44386,27.1321805 L172.747043,33.4980451 C172.692105,31.4481955 173.186541,29.4155138 174.182281,27.5922807 C175.67589,24.8522807 178.151504,22.860802 181.149023,21.9783709 C182.237469,21.6624812 183.353383,21.4976692 184.462431,21.4976692 Z" id="Shape"></path>
                <path d="M26.8815288,35.1392982 C26.0437343,33.9135088 24.8351128,32.8937343 23.29,32.1074436 C20.7628822,30.8198496 17.4872431,30.2327068 14.3455138,29.7417043 L13.8476441,29.6661654 C11.6432832,29.322807 9.35994987,28.9691479 7.89724311,28.2274937 C6.78819549,27.6678195 6.39333333,27.0326065 6.39333333,25.8033835 C6.39333333,23.4204762 8.98912281,21.6212782 12.4295739,21.6212782 C16.5361404,21.6212782 18.8297744,22.819599 21.3980952,24.3887469 C21.8753634,24.6806015 22.4247368,24.8316792 22.9809774,24.8316792 C24.0522556,24.8316792 25.0239599,24.2891729 25.5802005,23.3758396 C26.0025313,22.6822556 26.1330075,21.8650627 25.9407268,21.0753383 C25.7484461,20.285614 25.2608772,19.6194987 24.5672932,19.1971679 C23.1423559,18.3284712 21.5869424,17.422005 19.6229323,16.7146867 C17.4117043,15.9215288 15.0596992,15.5369674 12.4295739,15.5369674 C9.26037594,15.5369674 6.29719298,16.4983709 4.08253133,18.2494987 C1.65155388,20.1688722 0.31245614,22.8505013 0.31245614,25.7999499 C0.31245614,29.3331078 1.98461153,32.0490727 5.15037594,33.6491228 C7.47491228,34.8268421 10.2389474,35.2526065 12.9102757,35.6680702 L13.4012782,35.743609 C20.2547118,36.8183208 22.2358897,37.7831579 22.2358897,40.0493233 C22.2358897,42.857995 19.4237845,44.6949624 15.07,44.7327318 L14.9120551,44.7327318 C10.242381,44.7327318 7.62255639,42.9369674 6.21478697,41.9755639 C5.98130326,41.817619 5.78215539,41.6802757 5.58300752,41.5566667 C5.09887218,41.2545113 4.54606516,41.0965664 3.97609023,41.0965664 C2.91854637,41.0965664 1.95370927,41.6322055 1.39403509,42.5283709 C0.508170426,43.9498747 0.944235589,45.8314787 2.36573935,46.7173434 C2.44471178,46.7654135 2.56488722,46.8478195 2.69879699,46.9405263 L2.78120301,46.9954637 C4.44992481,48.1388471 8.36077694,50.8170426 14.9154887,50.8170426 L15.1249373,50.8170426 C18.9018797,50.7827068 22.1500501,49.7663659 24.5123559,47.8744612 C26.9639348,45.9104511 28.316839,43.1326817 28.316839,40.0493233 C28.3236341,38.1883208 27.8394987,36.5367669 26.8815288,35.1392982 Z" id="Path"></path>
            </g>
            <g id="Group">
                <path d="M27.5201754,20.9585965 C32.9246366,15.5369674 33.5083459,6.85343358 28.8798747,0.765689223 L28.3476692,0.0652380952 L4.4739599,24.024787 C-0.927067669,29.4498496 -1.51077694,38.1299499 3.11769424,44.2211278 L3.64989975,44.9215789 L26.888396,21.5972431 L27.5201754,20.9585965 Z" id="Path"></path>
                <path d="M26.9673684,45.1207268 C27.9081704,44.046015 27.5510777,40.5437594 26.5622055,34.4594486 L26.5519048,34.3942105 C26.1879449,32.145213 25.8445865,30.0198246 25.6866416,28.1313534 L25.5492982,26.4832331 L5.42162907,46.6864411 L6.1220802,47.215213 C8.76250627,49.2066917 11.9179699,50.2745363 15.2485464,50.3054386 L15.2485464,50.3054386 C19.4340852,50.343208 23.3621053,48.7362907 26.3115539,45.7799749 L26.9673684,45.1207268 Z" id="Path"></path>
                <path d="M52.489198,24.2857393 L51.9569925,23.5852882 L28.0832832,47.5482707 C25.1784712,50.466817 23.5818546,54.3364662 23.5886997,58.4533333 C23.595589,61.8491479 24.6771679,65.0595489 26.7201504,67.7411779 L27.2523559,68.4381955 L51.1260652,44.475213 C56.5305263,39.0570175 57.1176692,30.3734837 52.489198,24.2857393 Z" id="Path"></path>
                <path d="M28.6326566,23.3930075 C27.6952882,24.4642857 28.052381,27.9665414 29.0378195,34.0508521 L29.0446867,34.1057895 C29.4086466,36.3582206 29.752005,38.4870426 29.9133835,40.3789474 L30.0507268,42.0236341 L50.1749624,21.8238596 L49.4745113,21.2950877 C46.8375188,19.3001754 43.6820551,18.2288972 40.3514787,18.197995 L40.1729323,18.197995 C38.9025063,18.2014286 37.6389474,18.3559398 36.4165915,18.6649624 C33.7280952,19.3413784 31.262782,20.7457143 29.281604,22.7303258 L28.6326566,23.3930075 Z" id="Path"></path>
            </g>
        </g>
    </g>
</svg>